<?xml version="1.0" encoding="iso-8859-1"?>
<!-- Generator: Adobe Illustrator 19.0.0, SVG Export Plug-In . SVG Version: 6.00 Build 0)  -->
<svg version="1.1" id="Capa_1" xmlns="http://www.w3.org/2000/svg" xmlns:xlink="http://www.w3.org/1999/xlink" x="0px" y="0px"
	 viewBox="0 0 512 512" style="enable-background:new 0 0 512 512;" xml:space="preserve">
<path style="fill:#5C5F66;" d="M512,255v212c0,24.901-20.099,45-45,45H45c-24.901,0-45-20.099-45-45V255c0-24.901,20.099-45,45-45
	h422C491.901,210,512,230.099,512,255z"/>
<path style="fill:#53565C;" d="M512,255v212c0,24.901-20.099,45-45,45H256V210h211C491.901,210,512,230.099,512,255z"/>
<path style="fill:#E6EEFF;" d="M452,195v242c0,8.401-6.599,15-15,15H75c-8.401,0-15-6.599-15-15V195c0-8.401,6.599-15,15-15h362
	C445.401,180,452,186.599,452,195z"/>
<path style="fill:#DAE2F2;" d="M452,195v242c0,8.401-6.599,15-15,15H256V180h181C445.401,180,452,186.599,452,195z"/>
<path style="fill:#A1A7B3;" d="M316,422c-24.6,0-46.199,12.001-60,30.3C242.199,434,220.6,422,196,422H60v15c0,8.401,6.599,15,15,15
	h362c8.401,0,15-6.599,15-15v-15H316z"/>
<path style="fill:#979CA7;" d="M452,422v15c0,8.401-6.599,15-15,15H256v0.3c13.801-18.3,35.4-30.3,60-30.3H452z"/>
<path style="fill:#F29A36;" d="M346,60h-45V15c0-8.401-6.599-15-15-15h-60c-8.401,0-15,6.599-15,15v45h-45c-8.401,0-15,6.599-15,15
	v60c0,8.401,6.599,15,15,15h45v167c0,8.401,6.599,15,15,15h60c8.401,0,15-6.599,15-15V150h45c8.401,0,15-6.599,15-15V75
	C361,66.599,354.401,60,346,60z"/>
<path style="fill:#E7812E;" d="M361,75v60c0,8.401-6.599,15-15,15h-45v167c0,8.401-6.599,15-15,15h-30V0h30c8.401,0,15,6.599,15,15
	v45h45C354.401,60,361,66.599,361,75z"/>
<g>
</g>
<g>
</g>
<g>
</g>
<g>
</g>
<g>
</g>
<g>
</g>
<g>
</g>
<g>
</g>
<g>
</g>
<g>
</g>
<g>
</g>
<g>
</g>
<g>
</g>
<g>
</g>
<g>
</g>
</svg>
