<svg fill="#000000" xmlns="http://www.w3.org/2000/svg" viewBox="0 0 80 80" width="80px" height="80px"><path d="M 16 6 C 16 14.032824 18.386921 20.241396 22.044922 25.335938 A 1.0001 1.0001 0 0 0 22.408203 25.814453 C 22.739477 26.259557 23.064015 26.710336 23.414062 27.138672 C 27.551046 32.2009 32.912512 36.150819 38.289062 40 C 32.912501 43.849091 27.551042 47.799014 23.414062 52.861328 C 23.064592 53.288966 22.740917 53.739243 22.410156 54.183594 A 1.0001 1.0001 0 0 0 22.044922 54.666016 C 18.387439 59.76041 16 65.96806 16 74 L 18 74 C 18 72.602772 18.081359 71.275723 18.222656 70 L 32 70 A 1.0001 1.0001 0 1 0 32 68 L 18.498047 68 C 18.808857 66.217377 19.261237 64.554491 19.832031 62.988281 A 1.0001 1.0001 0 0 0 20 63 L 34 63 A 1.0001 1.0001 0 1 0 34 61 L 20.648438 61 C 21.458352 59.213485 22.429327 57.555662 23.535156 56 L 32 56 A 1.0001 1.0001 0 1 0 32 54 L 25.072266 54 C 26.540692 52.219973 28.187581 50.568401 29.951172 48.998047 A 1.0001 1.0001 0 0 0 30 49 L 36 49 A 1.0001 1.0001 0 1 0 36 47 L 32.298828 47 C 34.92998 44.860082 37.74565 42.841048 40.582031 40.814453 C 46.332031 36.706078 52.158758 32.556096 56.585938 27.138672 C 56.935408 26.711034 57.259083 26.260757 57.589844 25.816406 A 1.0001 1.0001 0 0 0 57.955078 25.333984 C 61.612562 20.23959 64 14.03194 64 6 L 62 6 C 62 7.3972279 61.918641 8.7242774 61.777344 10 L 48 10 A 1.0001 1.0001 0 1 0 48 12 L 61.501953 12 C 61.190714 13.785088 60.726208 15.441663 60.154297 17.009766 A 1.0001 1.0001 0 0 0 60 17 L 46 17 A 1.0001 1.0001 0 1 0 46 19 L 59.34375 19 C 58.533564 20.786237 57.563067 22.444548 56.457031 24 L 48 24 A 1.0001 1.0001 0 1 0 48 26 L 54.927734 26 C 53.459769 27.779411 51.816522 29.432439 50.052734 31.001953 A 1.0001 1.0001 0 0 0 50 31 L 44 31 A 1.0001 1.0001 0 1 0 44 33 L 47.693359 33 C 45.243395 34.990876 42.636467 36.878361 40 38.763672 C 37.363527 36.878304 34.756604 34.990875 32.306641 33 L 36 33 A 1.0001 1.0001 0 1 0 36 31 L 30 31 A 1.0001 1.0001 0 0 0 29.949219 31.001953 C 28.185026 29.432165 26.540528 27.77974 25.072266 26 L 32 26 A 1.0001 1.0001 0 1 0 32 24 L 23.542969 24 C 22.436934 22.444566 21.466436 20.78624 20.65625 19 L 34 19 A 1.0001 1.0001 0 1 0 34 17 L 20 17 A 1.0001 1.0001 0 0 0 19.845703 17.011719 C 19.273493 15.443106 18.809401 13.785761 18.498047 12 L 32 12 A 1.0001 1.0001 0 1 0 32 10 L 18.222656 10 C 18.081359 8.7242557 18 7.3972696 18 6 L 16 6 z M 36 10 A 1 1 0 0 0 35 11 A 1 1 0 0 0 36 12 A 1 1 0 0 0 37 11 A 1 1 0 0 0 36 10 z M 40 10 A 1 1 0 0 0 39 11 A 1 1 0 0 0 40 12 A 1 1 0 0 0 41 11 A 1 1 0 0 0 40 10 z M 44 10 A 1 1 0 0 0 43 11 A 1 1 0 0 0 44 12 A 1 1 0 0 0 45 11 A 1 1 0 0 0 44 10 z M 38 17 A 1 1 0 0 0 37 18 A 1 1 0 0 0 38 19 A 1 1 0 0 0 39 18 A 1 1 0 0 0 38 17 z M 42 17 A 1 1 0 0 0 41 18 A 1 1 0 0 0 42 19 A 1 1 0 0 0 43 18 A 1 1 0 0 0 42 17 z M 36 24 A 1 1 0 0 0 35 25 A 1 1 0 0 0 36 26 A 1 1 0 0 0 37 25 A 1 1 0 0 0 36 24 z M 40 24 A 1 1 0 0 0 39 25 A 1 1 0 0 0 40 26 A 1 1 0 0 0 41 25 A 1 1 0 0 0 40 24 z M 44 24 A 1 1 0 0 0 43 25 A 1 1 0 0 0 44 26 A 1 1 0 0 0 45 25 A 1 1 0 0 0 44 24 z M 40 31 A 1 1 0 0 0 39 32 A 1 1 0 0 0 40 33 A 1 1 0 0 0 41 32 A 1 1 0 0 0 40 31 z M 44.28125 41.853516 C 43.70925 42.265516 43.137312 42.673125 42.570312 43.078125 C 44.336194 44.361876 46.059272 45.660187 47.710938 47 L 44 47 A 1.0001 1.0001 0 1 0 44 49 L 50 49 A 1.0001 1.0001 0 0 0 50.072266 48.998047 C 51.838206 50.56703 53.480708 52.218776 54.951172 54 L 48 54 A 1.0001 1.0001 0 1 0 48 56 L 56.476562 56 C 57.578771 57.554056 58.547375 59.212507 59.353516 61 L 46 61 A 1.0001 1.0001 0 1 0 46 63 L 60 63 A 1.0001 1.0001 0 0 0 60.154297 62.988281 C 60.724276 64.558651 61.185813 66.216791 61.496094 68 L 48 68 A 1.0001 1.0001 0 1 0 48 70 L 61.783203 70 C 61.924141 71.275955 62 72.606195 62 74 L 64 74 C 64 65.908652 61.615743 59.735655 57.949219 54.646484 A 1.0001 1.0001 0 0 0 57.595703 54.1875 C 53.984994 49.343955 49.224593 45.474993 44.28125 41.853516 z M 40 47 A 1 1 0 0 0 39 48 A 1 1 0 0 0 40 49 A 1 1 0 0 0 41 48 A 1 1 0 0 0 40 47 z M 36 54 A 1 1 0 0 0 35 55 A 1 1 0 0 0 36 56 A 1 1 0 0 0 37 55 A 1 1 0 0 0 36 54 z M 40 54 A 1 1 0 0 0 39 55 A 1 1 0 0 0 40 56 A 1 1 0 0 0 41 55 A 1 1 0 0 0 40 54 z M 44 54 A 1 1 0 0 0 43 55 A 1 1 0 0 0 44 56 A 1 1 0 0 0 45 55 A 1 1 0 0 0 44 54 z M 38 61 A 1 1 0 0 0 37 62 A 1 1 0 0 0 38 63 A 1 1 0 0 0 39 62 A 1 1 0 0 0 38 61 z M 42 61 A 1 1 0 0 0 41 62 A 1 1 0 0 0 42 63 A 1 1 0 0 0 43 62 A 1 1 0 0 0 42 61 z M 36 68 A 1 1 0 0 0 35 69 A 1 1 0 0 0 36 70 A 1 1 0 0 0 37 69 A 1 1 0 0 0 36 68 z M 40 68 A 1 1 0 0 0 39 69 A 1 1 0 0 0 40 70 A 1 1 0 0 0 41 69 A 1 1 0 0 0 40 68 z M 44 68 A 1 1 0 0 0 43 69 A 1 1 0 0 0 44 70 A 1 1 0 0 0 45 69 A 1 1 0 0 0 44 68 z"/></svg>