<svg fill="#000000" xmlns="http://www.w3.org/2000/svg" viewBox="0 0 50 50" width="50px" height="50px"><path d="M 13 3 C 9.6761905 3 7 5.6761905 7 9 L 7 42 C 7 45.32381 9.6761905 48 13 48 L 43 48 L 43 46 L 13 46 C 10.72381 46 9 44.27619 9 42 C 9 39.72381 10.72381 38 13 38 L 43 38 L 43 3 L 13 3 z M 13 5 L 41 5 L 41 36 L 13 36 C 11.445442 36 10.063689 36.624615 9 37.587891 L 9 9 C 9 6.7238095 10.72381 5 13 5 z M 23 9 L 23 15 L 18 15 L 18 21 L 23 21 L 23 32 L 29 32 L 29 21 L 34 21 L 34 15 L 29 15 L 29 9 L 23 9 z M 25 11 L 27 11 L 27 17 L 32 17 L 32 19 L 27 19 L 27 30 L 25 30 L 25 19 L 20 19 L 20 17 L 25 17 L 25 16 L 25 11 z"/></svg>