<svg fill="#000000" xmlns="http://www.w3.org/2000/svg" viewBox="0 0 80 80" width="80px" height="80px"><path d="M 22 7 C 21.183594 7 20.457031 7.261719 19.765625 7.554688 C 19.59375 7.546875 19.425781 7.585938 19.277344 7.664063 C 19.277344 7.664063 19.097656 7.757813 18.839844 7.917969 C 18.835938 7.917969 18.832031 7.921875 18.828125 7.921875 C 18.773438 7.957031 18.679688 8.011719 18.582031 8.078125 C 18.582031 8.082031 18.574219 8.085938 18.574219 8.085938 C 16.449219 9.449219 10 14.417969 10 24 C 10 27.300781 12.699219 30 16 30 C 19.300781 30 22 27.300781 22 24 C 22 20.667969 25.597656 17.800781 25.597656 17.800781 C 25.738281 17.699219 25.84375 17.5625 25.914063 17.40625 C 27.144531 16.3125 28 14.777344 28 13 C 28 9.699219 25.300781 7 22 7 Z M 22 9 C 24.21875 9 26 10.78125 26 13 C 26 14.308594 25.367188 15.449219 24.390625 16.1875 C 24.296875 16.253906 24.21875 16.339844 24.15625 16.4375 C 23.722656 16.761719 20 19.59375 20 24 C 20 26.21875 18.21875 28 16 28 C 13.78125 28 12 26.21875 12 24 C 12 15.308594 17.835938 10.933594 19.660156 9.765625 C 19.671875 9.757813 19.683594 9.75 19.695313 9.742188 C 19.730469 9.714844 19.796875 9.675781 19.882813 9.625 L 19.890625 9.617188 C 20.035156 9.527344 20.070313 9.511719 20.109375 9.492188 C 20.140625 9.480469 20.171875 9.464844 20.199219 9.453125 C 20.757813 9.164063 21.359375 9 22 9 Z M 64 11 C 61.25 11 59 13.25 59 16 C 59 18.75 61.25 21 64 21 C 66.75 21 69 18.75 69 16 C 69 13.25 66.75 11 64 11 Z M 22 12 C 21.449219 12 21 12.449219 21 13 C 21 13.550781 21.449219 14 22 14 C 22.550781 14 23 13.550781 23 13 C 23 12.449219 22.550781 12 22 12 Z M 64 13 C 65.667969 13 67 14.332031 67 16 C 67 17.667969 65.667969 19 64 19 C 62.332031 19 61 17.667969 61 16 C 61 14.332031 62.332031 13 64 13 Z M 19 15 C 18.449219 15 18 15.449219 18 16 C 18 16.550781 18.449219 17 19 17 C 19.550781 17 20 16.550781 20 16 C 20 15.449219 19.550781 15 19 15 Z M 64 15 C 63.449219 15 63 15.449219 63 16 C 63 16.550781 63.449219 17 64 17 C 64.550781 17 65 16.550781 65 16 C 65 15.449219 64.550781 15 64 15 Z M 44 17 C 34.621094 17 27 24.621094 27 34 C 27 36.609375 27.539063 38.507813 28.042969 40.152344 C 28.546875 41.792969 29 43.167969 29 45 C 29 46.832031 28.539063 48.421875 28.039063 50.152344 C 27.539063 51.878906 27 53.746094 27 56 C 27 62.617188 32.382813 68 39 68 C 47.4375 68 53.054688 62.378906 56.402344 55.433594 C 59.746094 48.488281 61 40.140625 61 34 C 61 24.621094 53.378906 17 44 17 Z M 17 19 C 16.449219 19 16 19.449219 16 20 C 16 20.550781 16.449219 21 17 21 C 17.550781 21 18 20.550781 18 20 C 18 19.449219 17.550781 19 17 19 Z M 44 19 C 52.296875 19 59 25.703125 59 34 C 59 39.863281 57.753906 48.011719 54.597656 54.566406 C 51.445313 61.121094 46.5625 66 39 66 C 33.464844 66 29 61.535156 29 56 C 29 54.066406 29.460938 52.429688 29.960938 50.707031 C 30.460938 48.984375 31 47.167969 31 45 C 31 42.832031 30.453125 41.183594 29.957031 39.5625 C 29.460938 37.945313 29 36.34375 29 34 C 29 25.703125 35.703125 19 44 19 Z M 44.292969 21.03125 L 44.191406 21.035156 L 43.410156 21.472656 L 43.296875 22.363281 L 43.9375 22.988281 L 44.285156 23.035156 L 44.386719 23.03125 L 45.167969 22.59375 L 45.28125 21.703125 L 44.640625 21.078125 Z M 48.574219 21.609375 L 47.6875 21.753906 L 47.273438 22.546875 L 47.660156 23.359375 L 47.972656 23.519531 L 48.070313 23.550781 L 48.953125 23.40625 L 49.371094 22.609375 L 48.980469 21.804688 L 48.667969 21.640625 Z M 40.335938 21.777344 L 39.988281 21.839844 L 39.890625 21.871094 L 39.277344 22.519531 L 39.425781 23.40625 L 40.222656 23.8125 L 40.574219 23.753906 L 40.667969 23.71875 L 41.28125 23.070313 L 41.132813 22.1875 Z M 16 23 C 15.449219 23 15 23.449219 15 24 C 15 24.550781 15.449219 25 16 25 C 16.550781 25 17 24.550781 17 24 C 17 23.449219 16.550781 23 16 23 Z M 51.566406 23.726563 L 50.84375 24.25 L 50.828125 25.144531 L 51.03125 25.433594 L 51.105469 25.5 L 51.957031 25.769531 L 52.6875 25.246094 L 52.703125 24.347656 L 52.496094 24.0625 L 52.421875 23.996094 Z M 36.453125 23.78125 L 36.140625 23.945313 L 36.0625 24.007813 L 35.671875 24.8125 L 36.085938 25.609375 L 36.96875 25.753906 L 37.28125 25.589844 L 37.359375 25.53125 L 37.75 24.722656 L 37.335938 23.925781 Z M 34.339844 26.824219 L 33.453125 26.949219 L 33.203125 27.199219 L 33.183594 27.222656 L 33.128906 27.308594 L 33.097656 27.367188 L 33.058594 28.261719 L 33.75 28.832031 L 34.621094 28.617188 L 34.824219 28.367188 L 34.84375 28.34375 L 34.875 28.285156 L 34.851563 28.269531 L 34.96875 27.453125 Z M 54.296875 26.996094 L 53.449219 27.285156 L 53.175781 28.140625 L 53.292969 28.472656 L 53.339844 28.5625 L 54.078125 29.0625 L 54.925781 28.773438 L 55.203125 27.921875 L 55.085938 27.585938 L 55.035156 27.5 Z M 44 28 C 40.699219 28 38 30.699219 38 34 C 38 37.300781 40.699219 40 44 40 C 47.300781 40 50 37.300781 50 34 C 50 30.699219 47.300781 28 44 28 Z M 44 30 C 46.222656 30 48 31.777344 48 34 C 48 36.222656 46.222656 38 44 38 C 41.777344 38 40 36.222656 40 34 C 40 31.777344 41.777344 30 44 30 Z M 32.375 30.53125 L 31.597656 30.984375 L 31.460938 31.308594 L 31.4375 31.40625 L 31.652344 32.277344 L 32.472656 32.625 L 33.25 32.175781 L 33.386719 31.855469 L 33.410156 31.753906 L 33.199219 30.886719 Z M 55.925781 30.90625 L 55.03125 30.976563 L 54.558594 31.734375 L 54.578125 32.015625 L 54.566406 32.015625 L 54.585938 32.109375 L 55.125 32.828125 L 56.019531 32.824219 L 56.554688 32.101563 L 56.550781 31.75 L 56.535156 31.65625 L 56.53125 31.617188 L 56.519531 31.578125 L 56.515625 31.578125 Z M 44 33 C 43.449219 33 43 33.449219 43 34 C 43 34.550781 43.449219 35 44 35 C 44.550781 35 45 34.550781 45 34 C 45 33.449219 44.550781 33 44 33 Z M 31.695313 34.65625 L 31.078125 35.308594 L 31.039063 35.65625 L 31.046875 35.753906 L 31.496094 36.53125 L 32.386719 36.632813 L 33 35.984375 L 33.042969 35.632813 L 33.035156 35.53125 L 32.582031 34.757813 Z M 55.679688 34.953125 L 55.046875 35.585938 L 55 35.9375 L 55 36.035156 L 55.125 36.269531 L 55.046875 36.339844 L 54.96875 36.683594 L 54.96875 36.78125 L 55.335938 37.597656 L 56.210938 37.792969 L 56.890625 37.207031 L 56.964844 36.863281 L 56.96875 36.765625 L 56.824219 36.4375 L 56.949219 36.3125 L 57 35.964844 L 56.996094 35.863281 L 56.566406 35.078125 Z M 12 37 C 9.800781 37 8 38.800781 8 41 C 8 41.585938 8.234375 42.085938 8.460938 42.582031 C 8.457031 42.757813 8.5 42.933594 8.585938 43.085938 C 8.585938 43.085938 12.003906 49 20 49 C 22.199219 49 24 47.199219 24 45 C 24 42.800781 22.199219 41 20 41 C 17.101563 41 15.648438 39.222656 15.308594 38.757813 C 15.292969 38.738281 15.261719 38.691406 15.269531 38.703125 C 15.269531 38.703125 15.265625 38.699219 15.265625 38.699219 C 15.234375 38.65625 15.222656 38.636719 15.222656 38.636719 C 15.121094 38.480469 14.976563 38.355469 14.808594 38.277344 C 14.085938 37.53125 13.125 37 12 37 Z M 33.226563 38.625 L 32.34375 38.765625 L 31.925781 39.5625 L 31.984375 39.90625 L 32.015625 40.003906 L 32.660156 40.625 L 33.546875 40.484375 L 33.960938 39.6875 L 33.90625 39.339844 L 33.871094 39.246094 Z M 12 39 C 12.648438 39 13.207031 39.308594 13.578125 39.792969 C 13.597656 39.816406 13.617188 39.839844 13.640625 39.859375 C 13.640625 39.863281 13.640625 39.867188 13.644531 39.871094 C 13.652344 39.878906 13.675781 39.917969 13.664063 39.894531 C 13.675781 39.910156 13.683594 39.925781 13.695313 39.941406 C 14.242188 40.683594 16.277344 43 20 43 C 21.117188 43 22 43.882813 22 45 C 22 46.117188 21.117188 47 20 47 C 12.992188 47 10.371094 42.164063 10.347656 42.125 C 10.339844 42.105469 10.324219 42.082031 10.3125 42.058594 C 10.113281 41.742188 10 41.386719 10 41 C 10 39.882813 10.882813 39 12 39 Z M 55.445313 39.804688 L 54.691406 40.292969 L 54.574219 40.625 L 54.554688 40.71875 L 54.808594 41.578125 L 55.652344 41.890625 L 56.402344 41.402344 L 56.523438 41.074219 L 56.542969 40.972656 L 56.285156 40.113281 Z M 33.609375 42.589844 L 33 43.25 L 32.96875 43.597656 L 32.972656 43.699219 L 33.4375 44.46875 L 34.328125 44.558594 L 34.933594 43.902344 L 34.96875 43.546875 L 34.960938 43.449219 L 34.5 42.679688 Z M 54.679688 43.796875 L 53.875 44.199219 L 53.71875 44.511719 L 53.6875 44.609375 L 53.84375 45.488281 L 54.640625 45.894531 L 55.445313 45.496094 L 55.605469 45.183594 L 55.632813 45.085938 L 55.480469 44.203125 Z M 33.402344 46.578125 L 32.625 47.03125 L 32.488281 47.355469 L 32.46875 47.453125 L 32.679688 48.324219 L 33.503906 48.671875 L 34.28125 48.21875 L 34.417969 47.894531 L 34.4375 47.796875 L 34.222656 46.925781 Z M 53.449219 47.691406 L 52.625 48.046875 L 52.449219 48.347656 L 52.417969 48.441406 L 52.519531 49.332031 L 53.296875 49.78125 L 54.121094 49.433594 L 54.296875 49.125 L 54.328125 49.03125 L 54.222656 48.140625 Z M 32.417969 50.558594 L 31.644531 51.015625 L 31.507813 51.339844 L 31.484375 51.4375 L 31.703125 52.304688 L 32.53125 52.652344 L 33.300781 52.199219 L 33.4375 51.875 L 33.457031 51.777344 L 33.246094 50.90625 Z M 12 51 C 11.449219 51 11 51.449219 11 52 C 11 52.550781 11.449219 53 12 53 C 12.550781 53 13 52.550781 13 52 C 13 51.449219 12.550781 51 12 51 Z M 51.894531 51.449219 L 51.035156 51.699219 L 50.824219 51.980469 L 50.777344 52.066406 L 50.773438 52.964844 L 51.488281 53.503906 L 52.347656 53.25 L 52.5625 52.96875 L 52.609375 52.882813 L 52.609375 51.984375 Z M 39 52 C 36.800781 52 35 53.800781 35 56 C 35 58.199219 36.800781 60 39 60 C 41.199219 60 43 58.199219 43 56 C 43 53.800781 41.199219 52 39 52 Z M 67 53 C 64.800781 53 63 54.800781 63 57 C 63 59.898438 61.222656 61.351563 60.757813 61.691406 C 60.738281 61.707031 60.691406 61.738281 60.703125 61.730469 C 60.703125 61.730469 60.699219 61.734375 60.699219 61.734375 C 60.65625 61.765625 60.636719 61.777344 60.636719 61.777344 C 60.480469 61.878906 60.355469 62.023438 60.277344 62.191406 C 59.53125 62.914063 59 63.875 59 65 C 59 67.199219 60.800781 69 63 69 C 63.585938 69 64.085938 68.765625 64.582031 68.539063 C 64.757813 68.542969 64.933594 68.5 65.085938 68.414063 C 65.085938 68.414063 71 64.996094 71 57 C 71 54.800781 69.199219 53 67 53 Z M 18 54 C 17.449219 54 17 54.449219 17 55 C 17 55.550781 17.449219 56 18 56 C 18.550781 56 19 55.550781 19 55 C 19 54.449219 18.550781 54 18 54 Z M 39 54 C 40.117188 54 41 54.882813 41 56 C 41 57.117188 40.117188 58 39 58 C 37.882813 58 37 57.117188 37 56 C 37 54.882813 37.882813 54 39 54 Z M 31.703125 54.667969 L 31.070313 55.296875 L 31.019531 55.648438 L 31.023438 55.75 L 31.453125 56.535156 L 32.339844 56.667969 L 32.96875 56.03125 L 33.023438 55.683594 L 33.019531 55.582031 L 32.59375 54.796875 Z M 67 55 C 68.117188 55 69 55.882813 69 57 C 69 64.007813 64.164063 66.628906 64.125 66.652344 C 64.105469 66.660156 64.082031 66.675781 64.058594 66.6875 C 63.742188 66.886719 63.386719 67 63 67 C 61.882813 67 61 66.117188 61 65 C 61 64.351563 61.308594 63.792969 61.792969 63.421875 C 61.816406 63.402344 61.839844 63.382813 61.859375 63.359375 C 61.863281 63.359375 61.867188 63.359375 61.871094 63.355469 C 61.878906 63.347656 61.917969 63.324219 61.894531 63.335938 C 61.910156 63.324219 61.925781 63.316406 61.941406 63.304688 C 62.683594 62.757813 65 60.722656 65 57 C 65 55.882813 65.882813 55 67 55 Z M 49.953125 55.007813 L 49.0625 55.128906 L 48.8125 55.375 L 48.753906 55.457031 L 48.621094 56.34375 L 49.25 56.984375 L 50.136719 56.859375 L 50.386719 56.613281 L 50.445313 56.53125 L 50.578125 55.644531 Z M 67 57 C 66.449219 57 66 57.449219 66 58 C 66 58.550781 66.449219 59 67 59 C 67.550781 59 68 58.550781 68 58 C 68 57.449219 67.550781 57 67 57 Z M 46.628906 58.222656 L 46.339844 58.425781 L 46.269531 58.496094 L 45.988281 59.347656 L 46.5 60.082031 L 47.394531 60.109375 L 47.6875 59.90625 L 47.753906 59.839844 L 48.035156 58.984375 L 47.527344 58.25 Z M 33.175781 58.59375 L 32.3125 58.824219 L 31.976563 59.65625 L 32.066406 59.996094 L 32.109375 60.078125 L 32.128906 60.125 L 32.15625 60.171875 L 32.914063 60.65625 L 33.75 60.339844 L 34 59.480469 L 33.90625 59.238281 L 33.921875 59.234375 L 33.878906 59.144531 Z M 43.664063 60.660156 L 43.332031 60.78125 L 43.246094 60.828125 L 42.75 61.578125 L 43.050781 62.421875 L 43.90625 62.683594 L 44.238281 62.5625 L 44.328125 62.515625 L 44.824219 61.769531 L 44.519531 60.925781 Z M 36.304688 61.472656 L 35.410156 61.476563 L 34.875 62.195313 L 35.132813 63.050781 L 35.417969 63.265625 L 35.503906 63.308594 L 36.402344 63.304688 L 36.9375 62.585938 L 36.675781 61.726563 L 36.394531 61.515625 Z M 39.875 61.953125 L 39.820313 61.953125 L 39.816406 61.957031 L 39.773438 61.964844 L 39.777344 61.980469 L 39.042969 62.398438 L 38.925781 63.285156 L 39.574219 63.910156 L 39.921875 63.953125 L 39.980469 63.953125 L 40.03125 63.949219 L 40.082031 63.9375 L 40.125 63.933594 L 40.855469 63.410156 L 40.875 62.515625 L 40.171875 61.964844 L 39.875 61.957031 Z M 18 62 C 15.800781 62 14 63.800781 14 66 C 14 68.199219 15.800781 70 18 70 C 20.199219 70 22 68.199219 22 66 C 22 63.800781 20.199219 62 18 62 Z M 18 64 C 19.117188 64 20 64.882813 20 66 C 20 67.117188 19.117188 68 18 68 C 16.882813 68 16 67.117188 16 66 C 16 64.882813 16.882813 64 18 64 Z"/></svg>