<svg fill="#000000" xmlns="http://www.w3.org/2000/svg" viewBox="0 0 80 80" width="80px" height="80px"><path d="M 27.34375 11.488281 A 1.0001 1.0001 0 0 0 26.498047 12.058594 L 18.863281 27.544922 L 25.619141 38.884766 C 23.778977 41.984747 22.302819 45.089046 21.748047 47.833984 L 11.060547 37.146484 L 13.490234 20.140625 A 1.0001 1.0001 0 0 0 12.529297 18.986328 A 1.0001 1.0001 0 0 0 11.509766 19.859375 L 8.9394531 37.853516 L 21.5 50.414062 L 21.5 52.1875 C 21.5 57.029158 21.5027 61.136708 24.029297 64.115234 C 26.555928 67.09376 31.28067 68.5 40 68.5 C 48.71933 68.5 53.444077 67.093896 55.970703 64.115234 C 58.497329 61.136573 58.5 57.029657 58.5 52.1875 L 58.5 50.414062 L 71.060547 37.853516 L 68.490234 19.859375 A 1.0001 1.0001 0 0 0 67.541016 18.986328 A 1.0001 1.0001 0 0 0 67.441406 18.986328 A 1.0001 1.0001 0 0 0 66.509766 20.140625 L 68.939453 37.146484 L 58.251953 47.833984 C 57.697212 45.089209 56.221297 41.985195 54.380859 38.884766 L 61.136719 27.544922 L 53.501953 12.058594 A 1.0001 1.0001 0 0 0 52.625 11.488281 A 1.0001 1.0001 0 0 0 51.708984 12.941406 L 58.863281 27.455078 L 53.191406 36.972656 C 51.066882 33.681557 48.629243 30.571282 46.474609 28.308594 A 1.0001 1.0001 0 0 0 46.445312 28.28125 C 45.874111 27.025056 45.242831 25.838964 44.609375 24.775391 C 42.686324 21.546587 40.751953 19.341797 40.751953 19.341797 A 1.0001 1.0001 0 0 0 39.951172 19.001953 A 1.0001 1.0001 0 0 0 39.248047 19.341797 C 39.248047 19.341797 37.313676 21.546587 35.390625 24.775391 C 34.757169 25.838964 34.125889 27.025056 33.554688 28.28125 C 33.554688 28.28125 33.552734 28.283203 33.552734 28.283203 A 1.0002018 1.0002018 0 0 0 33.525391 28.310547 C 31.370757 30.573236 28.933118 33.681994 26.808594 36.972656 L 21.136719 27.455078 L 28.291016 12.941406 A 1.0001 1.0001 0 0 0 27.34375 11.488281 z M 40 21.71875 C 40.5338 22.361237 41.440666 23.364348 42.890625 25.798828 C 44.717574 28.866275 46.5 32.902281 46.5 36.626953 C 46.5 38.764814 45.889715 39.802636 44.837891 40.498047 C 43.786066 41.193458 42.096899 41.5 40 41.5 C 37.903101 41.5 36.213934 41.193458 35.162109 40.498047 C 34.110285 39.802636 33.5 38.764814 33.5 36.626953 C 33.5 32.902281 35.282426 28.866275 37.109375 25.798828 C 38.559334 23.364348 39.4662 22.361237 40 21.71875 z M 40 26 A 1 1 0 0 0 39 27 A 1 1 0 0 0 40 28 A 1 1 0 0 0 41 27 A 1 1 0 0 0 40 26 z M 38 29 A 1 1 0 0 0 37 30 A 1 1 0 0 0 38 31 A 1 1 0 0 0 39 30 A 1 1 0 0 0 38 29 z M 42 29 A 1 1 0 0 0 41 30 A 1 1 0 0 0 42 31 A 1 1 0 0 0 43 30 A 1 1 0 0 0 42 29 z M 37 32 A 1 1 0 0 0 36 33 A 1 1 0 0 0 37 34 A 1 1 0 0 0 38 33 A 1 1 0 0 0 37 32 z M 43 32 A 1 1 0 0 0 42 33 A 1 1 0 0 0 43 34 A 1 1 0 0 0 44 33 A 1 1 0 0 0 43 32 z M 31.841797 33.376953 C 31.624849 34.445693 31.5 35.53422 31.5 36.626953 C 31.5 37.169079 31.551322 37.673879 31.632812 38.154297 L 31.519531 38.783203 L 31.865234 39.152344 C 32.28098 40.469578 33.036506 41.488973 34.060547 42.166016 C 35.666223 43.227604 37.726899 43.5 40 43.5 C 42.273101 43.5 44.333777 43.227604 45.939453 42.166016 C 46.388697 41.868999 46.780399 41.498729 47.121094 41.074219 L 47.599609 41.583984 L 47.945312 41.646484 L 48.746094 41.244141 L 48.904297 40.363281 L 48.292969 39.708984 L 47.949219 39.646484 C 48.301136 38.781776 48.5 37.776023 48.5 36.626953 C 48.5 35.534065 48.373255 34.445839 48.15625 33.376953 C 49.718099 35.371248 51.287858 37.594766 52.634766 39.859375 C 54.906905 43.679612 56.5 47.580724 56.5 49.998047 L 56.5 52.1875 C 56.5 57.010343 56.363687 60.558724 54.445312 62.820312 C 52.526939 65.081902 48.50067 66.5 40 66.5 C 31.49933 66.5 27.473056 65.081786 25.554688 62.820312 C 23.636319 60.558839 23.5 57.009842 23.5 52.1875 L 23.5 50 C 23.5 47.582677 25.093095 43.681565 27.365234 39.861328 C 28.712097 37.596795 30.28 35.371757 31.841797 33.376953 z M 36 35 A 1 1 0 0 0 35 36 A 1 1 0 0 0 36 37 A 1 1 0 0 0 37 36 A 1 1 0 0 0 36 35 z M 44 35 A 1 1 0 0 0 43 36 A 1 1 0 0 0 44 37 A 1 1 0 0 0 45 36 A 1 1 0 0 0 44 35 z M 30.308594 40.859375 L 29.507812 41.259766 L 29.349609 42.142578 L 29.960938 42.796875 L 30.308594 42.859375 L 31.109375 42.457031 L 31.267578 41.574219 L 30.65625 40.919922 L 30.308594 40.859375 z M 49.925781 43.119141 L 49.125 43.521484 L 48.966797 44.404297 L 49.578125 45.058594 L 49.925781 45.119141 L 50.726562 44.71875 L 50.884766 43.835938 L 50.271484 43.181641 L 49.925781 43.119141 z M 28.466797 44.40625 L 27.664062 44.806641 L 27.507812 45.689453 L 28.119141 46.34375 L 28.466797 46.40625 L 29.267578 46.003906 L 29.425781 45.123047 L 28.8125 44.46875 L 28.466797 44.40625 z M 51.460938 46.808594 L 50.660156 47.208984 L 50.501953 48.091797 L 51.113281 48.746094 L 51.460938 48.808594 L 52.261719 48.40625 L 52.419922 47.525391 L 51.808594 46.869141 L 51.460938 46.808594 z M 27.177734 48.183594 L 26.375 48.583984 L 26.21875 49.466797 L 26.830078 50.121094 L 27.177734 50.183594 L 27.978516 49.78125 L 28.136719 48.900391 L 27.523438 48.246094 L 27.177734 48.183594 z M 52 50.748047 L 51.199219 51.148438 L 51.041016 52.03125 L 51.652344 52.685547 L 52 52.748047 L 52.800781 52.345703 L 52.958984 51.462891 L 52.347656 50.808594 L 52 50.748047 z M 27.011719 52.169922 L 26.210938 52.570312 L 26.052734 53.453125 L 26.664062 54.107422 L 27.011719 54.169922 L 27.8125 53.767578 L 27.970703 52.886719 L 27.359375 52.232422 L 27.011719 52.169922 z M 51.912109 54.746094 L 51.111328 55.146484 L 50.953125 56.029297 L 51.564453 56.683594 L 51.912109 56.746094 L 52.712891 56.34375 L 52.871094 55.460938 L 52.257812 54.806641 L 51.912109 54.746094 z M 27.251953 56.158203 L 26.451172 56.558594 L 26.292969 57.441406 L 26.904297 58.095703 L 27.251953 58.158203 L 28.052734 57.755859 L 28.210938 56.873047 L 27.597656 56.21875 L 27.251953 56.158203 z M 50.972656 58.603516 L 50.171875 59.003906 L 50.013672 59.886719 L 50.626953 60.541016 L 50.972656 60.603516 L 51.775391 60.201172 L 51.931641 59.320312 L 51.320312 58.666016 L 50.972656 58.603516 z M 28.847656 59.755859 L 28.046875 60.158203 L 27.888672 61.039062 L 28.5 61.693359 L 28.847656 61.755859 L 29.648438 61.355469 L 29.806641 60.472656 L 29.193359 59.818359 L 28.847656 59.755859 z M 48.054688 61.220703 L 47.253906 61.621094 L 47.095703 62.503906 L 47.708984 63.158203 L 48.054688 63.220703 L 48.857422 62.818359 L 49.013672 61.935547 L 48.402344 61.28125 L 48.054688 61.220703 z M 32.275391 61.714844 L 31.474609 62.115234 L 31.316406 62.998047 L 31.929688 63.652344 L 32.275391 63.714844 L 33.078125 63.3125 L 33.236328 62.429688 L 32.623047 61.775391 L 32.275391 61.714844 z M 44.199219 62.21875 L 43.398438 62.619141 L 43.240234 63.501953 L 43.851562 64.15625 L 44.199219 64.21875 L 45 63.816406 L 45.158203 62.933594 L 44.544922 62.279297 L 44.199219 62.21875 z M 36.214844 62.367188 L 35.414062 62.769531 L 35.255859 63.650391 L 35.867188 64.304688 L 36.214844 64.367188 L 37.015625 63.966797 L 37.173828 63.083984 L 36.5625 62.429688 L 36.214844 62.367188 z M 40.210938 62.484375 L 39.410156 62.884766 L 39.251953 63.767578 L 39.863281 64.421875 L 40.210938 64.484375 L 41.011719 64.082031 L 41.169922 63.201172 L 40.558594 62.546875 L 40.210938 62.484375 z"/></svg>