<?xml version="1.0"?><svg fill="#000000" xmlns="http://www.w3.org/2000/svg" viewBox="0 0 80 80" width="80px" height="80px">    <path d="M 24 9 C 12.413593 9 3 18.413593 3 30 C 3 34.689074 5.3776939 39.517926 8.8203125 44.173828 C 12.262931 48.829731 16.809197 53.325415 21.34375 57.269531 C 30.412856 65.157764 39.46875 70.845703 39.46875 70.845703 L 40 71.181641 L 40.53125 70.845703 C 40.53125 70.845703 49.587144 65.157764 58.65625 57.269531 C 63.190803 53.325415 67.737069 48.829731 71.179688 44.173828 C 74.622304 39.517926 77 34.689074 77 30 C 77 18.413593 67.586407 9 56 9 C 49.545396 9 43.849376 11.998318 40 16.585938 C 36.150624 11.998319 30.454604 9 24 9 z M 24 11 C 30.230908 11 35.731405 14.00531 39.199219 18.634766 L 40 19.703125 L 40.800781 18.634766 C 44.268595 14.00531 49.769092 11 56 11 C 66.505593 11 75 19.494407 75 30 C 75 33.998426 72.877696 38.513324 69.570312 42.986328 C 66.262931 47.459332 61.809197 51.87771 57.34375 55.761719 C 48.837282 63.160574 40.790511 68.293251 40 68.794922 C 39.209489 68.293251 31.162718 63.160574 22.65625 55.761719 C 18.190803 51.87771 13.737068 47.459332 10.429688 42.986328 C 7.1223051 38.513324 5 33.998426 5 30 C 5 19.494407 13.494407 11 24 11 z M 24 14 A 1 1 0 0 0 23 15 A 1 1 0 0 0 24 16 A 1 1 0 0 0 25 15 A 1 1 0 0 0 24 14 z M 56 14 A 1 1 0 0 0 55 15 A 1 1 0 0 0 56 16 A 1 1 0 0 0 57 15 A 1 1 0 0 0 56 14 z M 20.117188 14.511719 A 1 1 0 0 0 19.117188 15.511719 A 1 1 0 0 0 20.117188 16.511719 A 1 1 0 0 0 21.117188 15.511719 A 1 1 0 0 0 20.117188 14.511719 z M 27.880859 14.511719 A 1 1 0 0 0 26.880859 15.511719 A 1 1 0 0 0 27.880859 16.511719 A 1 1 0 0 0 28.880859 15.511719 A 1 1 0 0 0 27.880859 14.511719 z M 52.115234 14.511719 A 1 1 0 0 0 51.115234 15.511719 A 1 1 0 0 0 52.115234 16.511719 A 1 1 0 0 0 53.115234 15.511719 A 1 1 0 0 0 52.115234 14.511719 z M 59.880859 14.513672 A 1 1 0 0 0 58.880859 15.513672 A 1 1 0 0 0 59.880859 16.513672 A 1 1 0 0 0 60.880859 15.513672 A 1 1 0 0 0 59.880859 14.513672 z M 16.5 16.009766 A 1 1 0 0 0 15.5 17.009766 A 1 1 0 0 0 16.5 18.009766 A 1 1 0 0 0 17.5 17.009766 A 1 1 0 0 0 16.5 16.009766 z M 48.498047 16.009766 A 1 1 0 0 0 47.498047 17.009766 A 1 1 0 0 0 48.498047 18.009766 A 1 1 0 0 0 49.498047 17.009766 A 1 1 0 0 0 48.498047 16.009766 z M 31.5 16.011719 A 1 1 0 0 0 30.5 17.011719 A 1 1 0 0 0 31.5 18.011719 A 1 1 0 0 0 32.5 17.011719 A 1 1 0 0 0 31.5 16.011719 z M 63.5 16.011719 A 1 1 0 0 0 62.5 17.011719 A 1 1 0 0 0 63.5 18.011719 A 1 1 0 0 0 64.5 17.011719 A 1 1 0 0 0 63.5 16.011719 z M 13.392578 18.392578 A 1 1 0 0 0 12.392578 19.392578 A 1 1 0 0 0 13.392578 20.392578 A 1 1 0 0 0 14.392578 19.392578 A 1 1 0 0 0 13.392578 18.392578 z M 34.605469 18.392578 A 1 1 0 0 0 33.605469 19.392578 A 1 1 0 0 0 34.605469 20.392578 A 1 1 0 0 0 35.605469 19.392578 A 1 1 0 0 0 34.605469 18.392578 z M 66.605469 18.392578 A 1 1 0 0 0 65.605469 19.392578 A 1 1 0 0 0 66.605469 20.392578 A 1 1 0 0 0 67.605469 19.392578 A 1 1 0 0 0 66.605469 18.392578 z M 45.392578 18.394531 A 1 1 0 0 0 44.392578 19.394531 A 1 1 0 0 0 45.392578 20.394531 A 1 1 0 0 0 46.392578 19.394531 A 1 1 0 0 0 45.392578 18.394531 z M 11.009766 21.5 A 1 1 0 0 0 10.009766 22.5 A 1 1 0 0 0 11.009766 23.5 A 1 1 0 0 0 12.009766 22.5 A 1 1 0 0 0 11.009766 21.5 z M 36.988281 21.5 A 1 1 0 0 0 35.988281 22.5 A 1 1 0 0 0 36.988281 23.5 A 1 1 0 0 0 37.988281 22.5 A 1 1 0 0 0 36.988281 21.5 z M 68.988281 21.5 A 1 1 0 0 0 67.988281 22.5 A 1 1 0 0 0 68.988281 23.5 A 1 1 0 0 0 69.988281 22.5 A 1 1 0 0 0 68.988281 21.5 z M 43.009766 21.501953 A 1 1 0 0 0 42.009766 22.501953 A 1 1 0 0 0 43.009766 23.501953 A 1 1 0 0 0 44.009766 22.501953 A 1 1 0 0 0 43.009766 21.501953 z M 9.5117188 25.117188 A 1 1 0 0 0 8.5117188 26.117188 A 1 1 0 0 0 9.5117188 27.117188 A 1 1 0 0 0 10.511719 26.117188 A 1 1 0 0 0 9.5117188 25.117188 z M 70.486328 25.119141 A 1 1 0 0 0 69.486328 26.119141 A 1 1 0 0 0 70.486328 27.119141 A 1 1 0 0 0 71.486328 26.119141 A 1 1 0 0 0 70.486328 25.119141 z M 38 27 A 1.0001 1.0001 0 0 0 37.056641 27.669922 L 30.056641 47.669922 A 1.0001 1.0001 0 0 0 31 49 L 38.646484 49 L 35.044922 60.705078 A 1.0001 1.0001 0 0 0 36.818359 61.574219 L 50.818359 41.574219 A 1.0001 1.0001 0 0 0 50 40 L 42.457031 40 L 46.933594 28.359375 A 1.0001 1.0001 0 0 0 46 27 L 38 27 z M 9 29 A 1 1 0 0 0 8 30 A 1 1 0 0 0 9 31 A 1 1 0 0 0 10 30 A 1 1 0 0 0 9 29 z M 38.708984 29 L 44.542969 29 L 40.066406 40.640625 A 1.0001 1.0001 0 0 0 41 42 L 48.080078 42 L 38.822266 55.222656 L 40.955078 48.294922 A 1.0001 1.0001 0 0 0 40 47 L 32.408203 47 L 38.708984 29 z M 71 29 A 1 1 0 0 0 70 30 A 1 1 0 0 0 71 31 A 1 1 0 0 0 72 30 A 1 1 0 0 0 71 29 z M 9.5097656 32.880859 A 1 1 0 0 0 8.5097656 33.880859 A 1 1 0 0 0 9.5097656 34.880859 A 1 1 0 0 0 10.509766 33.880859 A 1 1 0 0 0 9.5097656 32.880859 z M 70.486328 32.882812 A 1 1 0 0 0 69.486328 33.882812 A 1 1 0 0 0 70.486328 34.882812 A 1 1 0 0 0 71.486328 33.882812 A 1 1 0 0 0 70.486328 32.882812 z M 11.009766 36.498047 A 1 1 0 0 0 10.009766 37.498047 A 1 1 0 0 0 11.009766 38.498047 A 1 1 0 0 0 12.009766 37.498047 A 1 1 0 0 0 11.009766 36.498047 z M 68.988281 36.501953 A 1 1 0 0 0 67.988281 37.501953 A 1 1 0 0 0 68.988281 38.501953 A 1 1 0 0 0 69.988281 37.501953 A 1 1 0 0 0 68.988281 36.501953 z"/></svg>