<svg fill="#000000" xmlns="http://www.w3.org/2000/svg" viewBox="0 0 80 80" width="80px" height="80px"><path d="M 65.5 10 C 63.609375 10 62.0625 11.535156 62.015625 13.417969 C 53.785156 20.847656 43.105469 25 32 25 L 18 25 C 16.691406 25 15.578125 25.863281 15.171875 27.042969 C 10.601563 27.460938 7 31.320313 7 36 L 7 38 C 7 42.605469 10.53125 46.273438 15 46.796875 L 15 47 L 15.175781 47 C 15.503906 47.898438 16.25 48.597656 17.175781 48.871094 C 21.125 52.984375 22.617188 61.222656 23.0625 67.976563 C 23.296875 71.460938 26.796875 73.828125 30.113281 72.722656 L 33.59375 71.5625 C 36.300781 70.65625 37.851563 67.757813 37.050781 65.003906 C 36.160156 61.929688 34.742188 60.660156 33.839844 57 L 34.832031 57 C 36.566406 57 37.929688 55.433594 37.691406 53.71875 L 37.082031 49.300781 C 46.328125 50.367188 55.050781 54.292969 62.015625 60.582031 C 62.0625 62.464844 63.609375 64 65.5 64 C 67.421875 64 69 62.421875 69 60.5 L 69 41.796875 C 70.925781 41.386719 72.386719 39.925781 72.796875 38 L 73 38 L 73 37 C 73 34.59375 71.273438 32.570313 69 32.101563 L 69 13.5 C 69 11.578125 67.421875 10 65.5 10 Z M 65.5 12 C 66.339844 12 67 12.660156 67 13.5 L 67 60.5 C 67 61.339844 66.339844 62 65.5 62 C 64.660156 62 64 61.339844 64 60.5 L 64 59.640625 L 63.675781 59.34375 C 55.285156 51.640625 44.371094 47.339844 33 47.09375 L 33 26.90625 C 44.371094 26.660156 55.285156 22.359375 63.675781 14.65625 L 64 14.359375 L 64 13.5 C 64 12.660156 64.660156 12 65.5 12 Z M 63 18 C 62.449219 18 62 18.449219 62 19 C 62 19.550781 62.449219 20 63 20 C 63.550781 20 64 19.550781 64 19 C 64 18.449219 63.550781 18 63 18 Z M 63 22 C 62.449219 22 62 22.449219 62 23 C 62 23.550781 62.449219 24 63 24 C 63.550781 24 64 23.550781 64 23 C 64 22.449219 63.550781 22 63 22 Z M 63 26 C 62.449219 26 62 26.449219 62 27 C 62 27.550781 62.449219 28 63 28 C 63.550781 28 64 27.550781 64 27 C 64 26.449219 63.550781 26 63 26 Z M 18 27 L 31 27 L 31 47 L 18 47 C 17.433594 47 17 46.566406 17 46 L 17 28 C 17 27.433594 17.433594 27 18 27 Z M 15 29.203125 L 15 44.796875 C 13.070313 44.511719 11.394531 43.484375 10.304688 42 L 11 42 L 11 40 L 9.300781 40 C 9.109375 39.371094 9 38.699219 9 38 L 11 38 L 11 36 L 9 36 C 9 35.300781 9.109375 34.628906 9.300781 34 L 11 34 L 11 32 L 10.304688 32 C 11.394531 30.515625 13.070313 29.488281 15 29.203125 Z M 20 30 L 20 32 L 24 32 L 24 30 Z M 63 30 C 62.449219 30 62 30.449219 62 31 C 62 31.550781 62.449219 32 63 32 C 63.550781 32 64 31.550781 64 31 C 64 30.449219 63.550781 30 63 30 Z M 63 34 C 62.449219 34 62 34.449219 62 35 C 62 35.550781 62.449219 36 63 36 C 63.550781 36 64 35.550781 64 35 C 64 34.449219 63.550781 34 63 34 Z M 69 34.410156 C 70.113281 34.847656 71 35.722656 71 37 C 71 38.277344 70.113281 39.152344 69 39.589844 Z M 20 36 L 20 38 L 24 38 L 24 36 Z M 63 38 C 62.449219 38 62 38.449219 62 39 C 62 39.550781 62.449219 40 63 40 C 63.550781 40 64 39.550781 64 39 C 64 38.449219 63.550781 38 63 38 Z M 20 42 L 20 44 L 24 44 L 24 42 Z M 63 42 C 62.449219 42 62 42.449219 62 43 C 62 43.550781 62.449219 44 63 44 C 63.550781 44 64 43.550781 64 43 C 64 42.449219 63.550781 42 63 42 Z M 63 46 C 62.449219 46 62 46.449219 62 47 C 62 47.550781 62.449219 48 63 48 C 63.550781 48 64 47.550781 64 47 C 64 46.449219 63.550781 46 63 46 Z M 19.644531 49 L 31.066406 49 C 31.257813 60.039063 33.984375 61.609375 35.132813 65.5625 C 35.632813 67.296875 34.679688 69.09375 32.957031 69.667969 L 29.480469 70.824219 C 27.359375 71.53125 25.210938 70.078125 25.0625 67.84375 C 24.640625 61.539063 23.375 53.988281 19.644531 49 Z M 33.015625 49.019531 C 33.691406 49.039063 34.367188 49.070313 35.042969 49.117188 L 35.714844 53.988281 C 35.789063 54.542969 35.390625 55 34.832031 55 L 33.441406 55 C 33.203125 53.4375 33.050781 51.480469 33.015625 49.019531 Z M 63 50 C 62.449219 50 62 50.449219 62 51 C 62 51.550781 62.449219 52 63 52 C 63.550781 52 64 51.550781 64 51 C 64 50.449219 63.550781 50 63 50 Z M 63 54 C 62.449219 54 62 54.449219 62 55 C 62 55.550781 62.449219 56 63 56 C 63.550781 56 64 55.550781 64 55 C 64 54.449219 63.550781 54 63 54 Z"/></svg>