<svg fill="#000000" xmlns="http://www.w3.org/2000/svg" viewBox="0 0 80 80" width="80px" height="80px"><path d="M 16 9 C 14.355469 9 13 10.355469 13 12 L 13 68 C 13 69.644531 14.355469 71 16 71 L 64 71 C 65.644531 71 67 69.644531 67 68 L 67 12 C 67 10.355469 65.644531 9 64 9 Z M 16 11 L 21 11 L 21 69 L 16 69 C 15.433594 69 15 68.566406 15 68 L 15 12 C 15 11.433594 15.433594 11 16 11 Z M 23 11 L 64 11 C 64.566406 11 65 11.433594 65 12 L 65 68 C 65 68.566406 64.566406 69 64 69 L 23 69 Z M 26 13 C 25.449219 13 25 13.449219 25 14 C 25 14.550781 25.449219 15 26 15 C 26.550781 15 27 14.550781 27 14 C 27 13.449219 26.550781 13 26 13 Z M 30 13 C 29.449219 13 29 13.449219 29 14 C 29 14.550781 29.449219 15 30 15 C 30.550781 15 31 14.550781 31 14 C 31 13.449219 30.550781 13 30 13 Z M 34 13 C 33.449219 13 33 13.449219 33 14 C 33 14.550781 33.449219 15 34 15 C 34.550781 15 35 14.550781 35 14 C 35 13.449219 34.550781 13 34 13 Z M 38 13 C 37.449219 13 37 13.449219 37 14 C 37 14.550781 37.449219 15 38 15 C 38.550781 15 39 14.550781 39 14 C 39 13.449219 38.550781 13 38 13 Z M 42 13 C 41.449219 13 41 13.449219 41 14 C 41 14.550781 41.449219 15 42 15 C 42.550781 15 43 14.550781 43 14 C 43 13.449219 42.550781 13 42 13 Z M 46 13 C 45.449219 13 45 13.449219 45 14 C 45 14.550781 45.449219 15 46 15 C 46.550781 15 47 14.550781 47 14 C 47 13.449219 46.550781 13 46 13 Z M 50 13 C 49.449219 13 49 13.449219 49 14 C 49 14.550781 49.449219 15 50 15 C 50.550781 15 51 14.550781 51 14 C 51 13.449219 50.550781 13 50 13 Z M 54 13 C 53.449219 13 53 13.449219 53 14 C 53 14.550781 53.449219 15 54 15 C 54.550781 15 55 14.550781 55 14 C 55 13.449219 54.550781 13 54 13 Z M 58 13 C 57.449219 13 57 13.449219 57 14 C 57 14.550781 57.449219 15 58 15 C 58.550781 15 59 14.550781 59 14 C 59 13.449219 58.550781 13 58 13 Z M 62 13 C 61.449219 13 61 13.449219 61 14 C 61 14.550781 61.449219 15 62 15 C 62.550781 15 63 14.550781 63 14 C 63 13.449219 62.550781 13 62 13 Z M 62 17 C 61.449219 17 61 17.449219 61 18 C 61 18.550781 61.449219 19 62 19 C 62.550781 19 63 18.550781 63 18 C 63 17.449219 62.550781 17 62 17 Z M 62 21 C 61.449219 21 61 21.449219 61 22 C 61 22.550781 61.449219 23 62 23 C 62.550781 23 63 22.550781 63 22 C 63 21.449219 62.550781 21 62 21 Z M 62 25 C 61.449219 25 61 25.449219 61 26 C 61 26.550781 61.449219 27 62 27 C 62.550781 27 63 26.550781 63 26 C 63 25.449219 62.550781 25 62 25 Z M 34 29 C 33.449219 29 33 29.449219 33 30 C 33 30.550781 33.449219 31 34 31 C 34.550781 31 35 30.550781 35 30 C 35 29.449219 34.550781 29 34 29 Z M 38 29 C 37.449219 29 37 29.449219 37 30 C 37 30.550781 37.449219 31 38 31 C 38.550781 31 39 30.550781 39 30 C 39 29.449219 38.550781 29 38 29 Z M 42 29 C 41.449219 29 41 29.449219 41 30 C 41 30.550781 41.449219 31 42 31 C 42.550781 31 43 30.550781 43 30 C 43 29.449219 42.550781 29 42 29 Z M 46 29 C 45.449219 29 45 29.449219 45 30 C 45 30.550781 45.449219 31 46 31 C 46.550781 31 47 30.550781 47 30 C 47 29.449219 46.550781 29 46 29 Z M 50 29 C 49.449219 29 49 29.449219 49 30 C 49 30.550781 49.449219 31 50 31 C 50.550781 31 51 30.550781 51 30 C 51 29.449219 50.550781 29 50 29 Z M 62 29 C 61.449219 29 61 29.449219 61 30 C 61 30.550781 61.449219 31 62 31 C 62.550781 31 63 30.550781 63 30 C 63 29.449219 62.550781 29 62 29 Z M 62 33 C 61.449219 33 61 33.449219 61 34 C 61 34.550781 61.449219 35 62 35 C 62.550781 35 63 34.550781 63 34 C 63 33.449219 62.550781 33 62 33 Z M 62 37 C 61.449219 37 61 37.449219 61 38 C 61 38.550781 61.449219 39 62 39 C 62.550781 39 63 38.550781 63 38 C 63 37.449219 62.550781 37 62 37 Z M 62 41 C 61.449219 41 61 41.449219 61 42 C 61 42.550781 61.449219 43 62 43 C 62.550781 43 63 42.550781 63 42 C 63 41.449219 62.550781 41 62 41 Z M 62 45 C 61.449219 45 61 45.449219 61 46 C 61 46.550781 61.449219 47 62 47 C 62.550781 47 63 46.550781 63 46 C 63 45.449219 62.550781 45 62 45 Z M 62 49 C 61.449219 49 61 49.449219 61 50 C 61 50.550781 61.449219 51 62 51 C 62.550781 51 63 50.550781 63 50 C 63 49.449219 62.550781 49 62 49 Z M 62 53 C 61.449219 53 61 53.449219 61 54 C 61 54.550781 61.449219 55 62 55 C 62.550781 55 63 54.550781 63 54 C 63 53.449219 62.550781 53 62 53 Z M 62 57 C 61.449219 57 61 57.449219 61 58 C 61 58.550781 61.449219 59 62 59 C 62.550781 59 63 58.550781 63 58 C 63 57.449219 62.550781 57 62 57 Z M 62 61 C 61.449219 61 61 61.449219 61 62 C 61 62.550781 61.449219 63 62 63 C 62.550781 63 63 62.550781 63 62 C 63 61.449219 62.550781 61 62 61 Z M 26 65 C 25.449219 65 25 65.449219 25 66 C 25 66.550781 25.449219 67 26 67 C 26.550781 67 27 66.550781 27 66 C 27 65.449219 26.550781 65 26 65 Z M 30 65 C 29.449219 65 29 65.449219 29 66 C 29 66.550781 29.449219 67 30 67 C 30.550781 67 31 66.550781 31 66 C 31 65.449219 30.550781 65 30 65 Z M 34 65 C 33.449219 65 33 65.449219 33 66 C 33 66.550781 33.449219 67 34 67 C 34.550781 67 35 66.550781 35 66 C 35 65.449219 34.550781 65 34 65 Z M 38 65 C 37.449219 65 37 65.449219 37 66 C 37 66.550781 37.449219 67 38 67 C 38.550781 67 39 66.550781 39 66 C 39 65.449219 38.550781 65 38 65 Z M 42 65 C 41.449219 65 41 65.449219 41 66 C 41 66.550781 41.449219 67 42 67 C 42.550781 67 43 66.550781 43 66 C 43 65.449219 42.550781 65 42 65 Z M 46 65 C 45.449219 65 45 65.449219 45 66 C 45 66.550781 45.449219 67 46 67 C 46.550781 67 47 66.550781 47 66 C 47 65.449219 46.550781 65 46 65 Z M 50 65 C 49.449219 65 49 65.449219 49 66 C 49 66.550781 49.449219 67 50 67 C 50.550781 67 51 66.550781 51 66 C 51 65.449219 50.550781 65 50 65 Z M 54 65 C 53.449219 65 53 65.449219 53 66 C 53 66.550781 53.449219 67 54 67 C 54.550781 67 55 66.550781 55 66 C 55 65.449219 54.550781 65 54 65 Z M 58 65 C 57.449219 65 57 65.449219 57 66 C 57 66.550781 57.449219 67 58 67 C 58.550781 67 59 66.550781 59 66 C 59 65.449219 58.550781 65 58 65 Z M 62 65 C 61.449219 65 61 65.449219 61 66 C 61 66.550781 61.449219 67 62 67 C 62.550781 67 63 66.550781 63 66 C 63 65.449219 62.550781 65 62 65 Z"/></svg>