<svg fill="#000000" xmlns="http://www.w3.org/2000/svg" viewBox="0 0 50 50" width="50px" height="50px"><path d="M 0 0 L 0 16 L 16 16 L 16 0 Z M 2 2 L 14 2 L 14 10.03125 L 11.875 8 L 11.34375 7.53125 L 10.71875 7.84375 L 8.90625 8.78125 L 6.21875 5.5625 L 5.5625 4.78125 L 4.8125 5.4375 L 2 7.84375 Z M 11.5 3 C 10.671875 3 10 3.671875 10 4.5 C 10 5.328125 10.671875 6 11.5 6 C 12.328125 6 13 5.328125 13 4.5 C 13 3.671875 12.328125 3 11.5 3 Z M 20.71875 4 C 20.167969 4.078125 19.78125 4.589844 19.859375 5.140625 C 19.9375 5.691406 20.449219 6.078125 21 6 L 49 6 C 49.359375 6.003906 49.695313 5.816406 49.878906 5.503906 C 50.058594 5.191406 50.058594 4.808594 49.878906 4.496094 C 49.695313 4.183594 49.359375 3.996094 49 4 L 21 4 C 20.96875 4 20.9375 4 20.90625 4 C 20.875 4 20.84375 4 20.8125 4 C 20.78125 4 20.75 4 20.71875 4 Z M 5.34375 7.625 L 7.875 10.65625 L 8.375 11.25 L 9.09375 10.90625 L 11 9.9375 L 14 12.78125 L 14 14 L 2 14 L 2 10.5 Z M 20.71875 10 C 20.167969 10.078125 19.78125 10.589844 19.859375 11.140625 C 19.9375 11.691406 20.449219 12.078125 21 12 L 49 12 C 49.359375 12.003906 49.695313 11.816406 49.878906 11.503906 C 50.058594 11.191406 50.058594 10.808594 49.878906 10.496094 C 49.695313 10.183594 49.359375 9.996094 49 10 L 21 10 C 20.96875 10 20.9375 10 20.90625 10 C 20.875 10 20.84375 10 20.8125 10 C 20.78125 10 20.75 10 20.71875 10 Z M 0 17 L 0 33 L 16 33 L 16 17 Z M 2 19 L 14 19 L 14 31 L 2 31 Z M 9.40625 20 C 9.292969 19.996094 9.171875 20.015625 9.0625 20.03125 C 8.621094 20.089844 8.210938 20.277344 7.90625 20.4375 C 7.632813 20.582031 7.613281 20.617188 7.4375 20.75 C 7.160156 20.613281 6.902344 20.445313 6.46875 20.375 C 5.855469 20.273438 5.003906 20.390625 4.375 21 C 3.585938 21.769531 3.582031 22.816406 3.71875 23.5 C 3.777344 23.789063 3.828125 23.796875 3.90625 24 C 3.761719 24.152344 3.71875 24.144531 3.5625 24.375 C 3.179688 24.941406 2.75 25.867188 3.125 26.875 C 3.316406 27.390625 3.707031 27.777344 4.09375 28 C 4.753906 28.378906 5.390625 28.457031 5.875 28.4375 C 6.132813 28.835938 6.535156 29.300781 7.15625 29.65625 C 7.492188 29.847656 7.929688 29.996094 8.40625 29.96875 C 8.96875 29.9375 9.433594 29.652344 9.75 29.34375 C 10.066406 29.035156 10.253906 28.6875 10.40625 28.375 C 10.550781 28.078125 10.558594 28.03125 10.625 27.8125 C 10.835938 27.769531 10.878906 27.792969 11.15625 27.6875 C 11.796875 27.449219 12.667969 26.953125 12.9375 25.90625 C 13.1875 24.9375 12.703125 24.136719 12.25 23.65625 C 11.980469 23.371094 11.816406 23.277344 11.59375 23.125 C 11.621094 22.902344 11.636719 22.871094 11.625 22.5625 C 11.597656 21.875 11.425781 20.859375 10.46875 20.3125 C 10.109375 20.105469 9.75 20.007813 9.40625 20 Z M 20.71875 21 C 20.167969 21.078125 19.78125 21.589844 19.859375 22.140625 C 19.9375 22.691406 20.449219 23.078125 21 23 L 49 23 C 49.359375 23.003906 49.695313 22.816406 49.878906 22.503906 C 50.058594 22.191406 50.058594 21.808594 49.878906 21.496094 C 49.695313 21.183594 49.359375 20.996094 49 21 L 21 21 C 20.96875 21 20.9375 21 20.90625 21 C 20.875 21 20.84375 21 20.8125 21 C 20.78125 21 20.75 21 20.71875 21 Z M 9.25 22.03125 C 9.359375 22.011719 9.441406 22.015625 9.46875 22.03125 C 9.519531 22.0625 9.609375 22.273438 9.625 22.65625 C 9.640625 23.039063 9.59375 23.375 9.59375 23.375 L 9.40625 24.15625 L 10.125 24.5 C 10.226563 24.558594 10.5625 24.796875 10.78125 25.03125 C 11 25.265625 11.015625 25.351563 11 25.40625 C 10.972656 25.511719 10.820313 25.683594 10.46875 25.8125 C 10.117188 25.941406 9.78125 25.96875 9.78125 25.96875 L 9.03125 26.03125 L 8.875 26.78125 C 8.875 26.78125 8.800781 27.144531 8.625 27.5 C 8.539063 27.679688 8.417969 27.835938 8.34375 27.90625 C 8.269531 27.976563 8.277344 27.96875 8.28125 27.96875 C 8.261719 27.96875 8.242188 27.984375 8.15625 27.9375 C 7.855469 27.765625 7.34375 26.9375 7.34375 26.9375 L 7 26.21875 L 6.25 26.375 C 6.25 26.375 5.320313 26.378906 5.09375 26.25 C 5.050781 26.226563 5.015625 26.226563 5 26.1875 C 4.941406 26.027344 5.019531 25.796875 5.21875 25.5 C 5.417969 25.203125 5.65625 24.96875 5.65625 24.96875 L 6.28125 24.4375 L 5.875 23.71875 C 5.875 23.71875 5.726563 23.433594 5.65625 23.09375 C 5.585938 22.753906 5.628906 22.585938 5.78125 22.4375 C 5.878906 22.339844 5.925781 22.304688 6.15625 22.34375 C 6.386719 22.382813 6.675781 22.527344 6.84375 22.625 L 6.875 22.625 C 6.972656 22.679688 7 22.71875 7 22.71875 L 7.65625 23.1875 L 8.25 22.625 C 8.25 22.625 8.503906 22.367188 8.84375 22.1875 C 9.011719 22.097656 9.140625 22.050781 9.25 22.03125 Z M 8.65625 23.0625 C 8.203125 23.179688 7.90625 24.53125 7.90625 24.53125 C 7.90625 24.53125 7.199219 22.917969 6.6875 23.34375 C 6.175781 23.769531 7.75 24.6875 7.75 24.6875 C 7.75 24.6875 6.011719 24.882813 6.21875 25.46875 C 6.425781 26.054688 7.84375 24.875 7.84375 24.875 C 7.84375 24.875 7.46875 26.667969 8.125 26.5625 C 8.78125 26.457031 8.0625 24.84375 8.0625 24.84375 C 8.0625 24.84375 9.652344 25.753906 9.75 25.09375 C 9.847656 24.4375 8.09375 24.65625 8.09375 24.65625 C 8.09375 24.65625 9.414063 23.417969 8.84375 23.09375 C 8.773438 23.054688 8.722656 23.046875 8.65625 23.0625 Z M 20.71875 27 C 20.167969 27.078125 19.78125 27.589844 19.859375 28.140625 C 19.9375 28.691406 20.449219 29.078125 21 29 L 49 29 C 49.359375 29.003906 49.695313 28.816406 49.878906 28.503906 C 50.058594 28.191406 50.058594 27.808594 49.878906 27.496094 C 49.695313 27.183594 49.359375 26.996094 49 27 L 21 27 C 20.96875 27 20.9375 27 20.90625 27 C 20.875 27 20.84375 27 20.8125 27 C 20.78125 27 20.75 27 20.71875 27 Z M 0 34 L 0 50 L 16 50 L 16 34 Z M 2 36 L 14 36 L 14 48 L 2 48 Z M 8 37.34375 C 8 37.34375 7.441406 39.023438 6.90625 39.25 C 6.371094 39.476563 4.6875 38.6875 4.6875 38.6875 C 4.6875 38.6875 5.429688 40.359375 5.25 40.90625 C 5.121094 41.296875 3.34375 42 3.34375 42 C 3.34375 42 5.066406 42.625 5.1875 43.09375 C 5.367188 43.789063 4.6875 45.3125 4.6875 45.3125 C 4.6875 45.3125 6.269531 44.445313 6.78125 44.71875 C 7.292969 44.992188 8 46.65625 8 46.65625 C 8 46.65625 8.558594 44.976563 9.09375 44.75 C 9.628906 44.523438 11.3125 45.3125 11.3125 45.3125 C 11.3125 45.3125 10.558594 43.640625 10.75 43.09375 C 10.898438 42.667969 12.65625 42 12.65625 42 C 12.65625 42 10.953125 41.332031 10.8125 40.90625 C 10.585938 40.222656 11.3125 38.6875 11.3125 38.6875 C 11.3125 38.6875 9.730469 39.554688 9.21875 39.28125 C 8.707031 39.007813 8 37.34375 8 37.34375 Z M 20.71875 38 C 20.167969 38.078125 19.78125 38.589844 19.859375 39.140625 C 19.9375 39.691406 20.449219 40.078125 21 40 L 49 40 C 49.359375 40.003906 49.695313 39.816406 49.878906 39.503906 C 50.058594 39.191406 50.058594 38.808594 49.878906 38.496094 C 49.695313 38.183594 49.359375 37.996094 49 38 L 21 38 C 20.96875 38 20.9375 38 20.90625 38 C 20.875 38 20.84375 38 20.8125 38 C 20.78125 38 20.75 38 20.71875 38 Z M 8 40.53125 C 8.8125 40.53125 9.46875 41.1875 9.46875 42 C 9.46875 42.8125 8.8125 43.46875 8 43.46875 C 7.1875 43.46875 6.53125 42.8125 6.53125 42 C 6.53125 41.1875 7.1875 40.53125 8 40.53125 Z M 20.71875 44 C 20.167969 44.078125 19.78125 44.589844 19.859375 45.140625 C 19.9375 45.691406 20.449219 46.078125 21 46 L 49 46 C 49.359375 46.003906 49.695313 45.816406 49.878906 45.503906 C 50.058594 45.191406 50.058594 44.808594 49.878906 44.496094 C 49.695313 44.183594 49.359375 43.996094 49 44 L 21 44 C 20.96875 44 20.9375 44 20.90625 44 C 20.875 44 20.84375 44 20.8125 44 C 20.78125 44 20.75 44 20.71875 44 Z"/></svg>