<?xml version="1.0"?><svg fill="#000000" xmlns="http://www.w3.org/2000/svg" viewBox="0 0 50 50" width="50px" height="50px">    <path d="M 0 4 L 0 6 L 50 6 L 50 4 L 0 4 z M 25.099609 8.0996094 C 23.499609 8.0996094 23.099609 9 23.099609 10 L 23.099609 27 C 23.099609 29.2 22.200781 30.900391 18.300781 30.900391 C 12.700781 30.900391 10.400391 32.300781 10.400391 35.800781 C 10.400391 38.200781 10.900781 41.699219 18.300781 41.699219 C 25.100781 41.699219 25 36.7 25 34 L 25 19 C 25 17.7 25.500781 17 26.300781 17 C 31.300781 17 30.099609 20 37.099609 20 C 37.099609 20 37.118344 20.001953 37.152344 20.001953 C 37.460344 20.001953 39 19.920781 39 18.300781 L 39 13 C 39 11.5 38.399609 11.099609 37.099609 11.099609 C 30.099609 11.099609 31.699609 8.0996094 25.099609 8.0996094 z M 25.099609 10.099609 C 27.815609 10.099609 28.731578 10.628828 29.892578 11.298828 C 31.342578 12.135828 32.986 13.083609 37 13.099609 L 36.998047 18 C 33.866047 17.986 32.826562 17.323047 31.726562 16.623047 C 30.529562 15.862047 29.172781 15 26.300781 15 C 25.992781 15 25.553609 15.036406 25.099609 15.191406 L 25.099609 10.099609 z M 0 14 L 0 16 L 21 16 L 21 14 L 0 14 z M 41 14 L 41 16 L 50 16 L 50 14 L 41 14 z M 0 24 L 0 26 L 21 26 L 21 24 L 0 24 z M 27 24 L 27 26 L 50 26 L 50 24 L 27 24 z M 23.099609 31.615234 L 23.099609 33.800781 C 23.099609 37.255781 22.756781 39.699219 18.300781 39.699219 C 12.400781 39.699219 12.400391 37.446781 12.400391 35.800781 C 12.400391 34.508781 12.400781 32.900391 18.300781 32.900391 C 20.532781 32.900391 22.063609 32.394234 23.099609 31.615234 z M 0 34 L 0 36 L 8.4003906 36 C 8.4003906 36 8.2007812 34.7 8.8007812 34 L 0 34 z M 27 34 C 27 35.4 26.800781 36 26.800781 36 L 50 36 L 50 34 L 27 34 z M 0 44 L 0 46 L 50 46 L 50 44 L 0 44 z"/></svg>